<svg xmlns="http://www.w3.org/2000/svg" version="1.0" viewBox="72.89 163.53 48.75 44.16">
  <path d="M80.648438 182.285156c0-3.0625 2.980468-5.539062 6.648437-5.539062h19.945313c3.671874 0 6.648437 2.476562 6.648437 5.539062v3.324219c0 7.339844-5.953125 13.296875-13.296875 13.296875h-6.648438c-7.339843 0-13.296874-5.957031-13.296874-13.296875Zm-5.539063 12.1875h1.871094c7.613281 17.628906 32.976562 17.617188 40.582031 0h1.871094c1.21875 0 2.214844-.996094 2.214844-2.214844v-13.296874c0-1.21875-.996094-2.214844-2.214844-2.214844H117.5625c-7.613281-17.628906-32.976562-17.617188-40.582031 0h-1.871094c-1.21875 0-2.214844.996094-2.214844 2.214844v13.296874c0 1.21875.996094 2.214844 2.214844 2.214844"/>
  <style>
    path { fill: #17202d; }
    @media (prefers-color-scheme: dark) {
      path { fill: #e2e8f0; }
    }
  </style>
</svg>
